<?xml version="1.0" encoding="UTF-8"?>
<svg id="Layer_1" data-name="Layer 1" xmlns="http://www.w3.org/2000/svg" xmlns:xlink="http://www.w3.org/1999/xlink" viewBox="0 0 842 214">
  <defs>
    <style>
      .cls-1 {
        fill: url(#Sky-10);
      }

      .cls-2 {
        fill: url(#Sky-3);
      }

      .cls-3 {
        fill: url(#Sky-15);
      }

      .cls-4 {
        fill: url(#Sky-5);
      }

      .cls-5 {
        fill: url(#Sky-23);
      }

      .cls-6 {
        fill: url(#Sky-2);
      }

      .cls-7 {
        fill: url(#Sky-4);
      }

      .cls-8 {
        fill: url(#Orchid-2);
      }

      .cls-9 {
        fill: url(#Sky-9);
      }

      .cls-10 {
        fill: url(#Sky-7);
      }

      .cls-11 {
        fill: url(#Sky-12);
      }

      .cls-12 {
        fill: url(#Sky-14);
      }

      .cls-13 {
        fill: url(#Sky-11);
      }

      .cls-14 {
        fill: url(#Sky-17);
      }

      .cls-15 {
        fill: url(#Sky-16);
      }

      .cls-16 {
        fill: url(#Sky-13);
      }

      .cls-17 {
        fill: url(#Sky-8);
      }

      .cls-18 {
        fill: url(#Sky-21);
      }

      .cls-19 {
        fill: url(#Sky-20);
      }

      .cls-20 {
        fill: url(#Sky-19);
      }

      .cls-21 {
        fill: url(#Orchid);
      }

      .cls-22 {
        fill: url(#Sky-6);
      }

      .cls-23 {
        fill: url(#Sky);
      }

      .cls-24 {
        fill: url(#Sky-18);
      }

      .cls-25 {
        fill: #00a1d4;
      }

      .cls-26 {
        fill: url(#Sky-22);
      }
    </style>
    <linearGradient id="Sky" x1="20.77" y1="121.41" x2="91.05" y2="121.41" gradientUnits="userSpaceOnUse">
      <stop offset="0" stop-color="#cce0f4"/>
      <stop offset=".06" stop-color="#c2dcf2"/>
      <stop offset=".17" stop-color="#a9d2ee"/>
      <stop offset=".31" stop-color="#7fc2e7"/>
      <stop offset=".46" stop-color="#46abdd"/>
      <stop offset=".57" stop-color="#1e9cd7"/>
      <stop offset=".87" stop-color="#0075be"/>
      <stop offset=".99" stop-color="#005b97"/>
    </linearGradient>
    <linearGradient id="Sky-2" data-name="Sky" x1="84.5" y1="158.03" x2="109.58" y2="158.03" xlink:href="#Sky"/>
    <linearGradient id="Sky-3" data-name="Sky" x1="103.89" y1="168.28" x2="123.91" y2="168.28" xlink:href="#Sky"/>
    <linearGradient id="Sky-4" data-name="Sky" x1="138.77" y1="123.53" x2="161.8" y2="123.53" xlink:href="#Sky"/>
    <linearGradient id="Sky-5" data-name="Sky" x1="177.97" y1="119.96" x2="188.78" y2="119.96" xlink:href="#Sky"/>
    <linearGradient id="Sky-6" data-name="Sky" x1="211.77" y1="103.12" x2="248.79" y2="103.12" xlink:href="#Sky"/>
    <linearGradient id="Sky-7" data-name="Sky" x1="259.93" y1="150.07" x2="268.92" y2="150.07" xlink:href="#Sky"/>
    <linearGradient id="Sky-8" data-name="Sky" x1="182.42" y1="118.75" x2="239.74" y2="118.75" xlink:href="#Sky"/>
    <linearGradient id="Orchid" x1="252.17" y1="99.18" x2="269.92" y2="99.18" gradientUnits="userSpaceOnUse">
      <stop offset="0" stop-color="#ff7bac"/>
      <stop offset=".22" stop-color="#ff7bac" stop-opacity=".76"/>
      <stop offset=".6" stop-color="#ff7bac" stop-opacity=".36"/>
      <stop offset=".87" stop-color="#ff7bac" stop-opacity=".1"/>
      <stop offset="1" stop-color="#ff7bac" stop-opacity="0"/>
    </linearGradient>
    <linearGradient id="Sky-9" data-name="Sky" x1="276.97" y1="112.1" x2="294.56" y2="112.1" xlink:href="#Sky"/>
    <linearGradient id="Sky-10" data-name="Sky" x1="295.72" y1="104.93" x2="330.5" y2="104.93" xlink:href="#Sky"/>
    <linearGradient id="Sky-11" data-name="Sky" x1="340.93" y1="111" x2="401.07" y2="111" xlink:href="#Sky"/>
    <linearGradient id="Sky-12" data-name="Sky" x1="338.14" y1="96.43" x2="388.83" y2="96.43" xlink:href="#Sky"/>
    <linearGradient id="Sky-13" data-name="Sky" x1="449.08" y1="107.21" x2="499.88" y2="107.21" xlink:href="#Sky"/>
    <linearGradient id="Sky-14" data-name="Sky" x1="456.81" y1="110.33" x2="462.4" y2="110.33" xlink:href="#Sky"/>
    <linearGradient id="Sky-15" data-name="Sky" x1="522.93" y1="131.57" x2="533.92" y2="131.57" xlink:href="#Sky"/>
    <linearGradient id="Orchid-2" data-name="Orchid" x1="523.5" y1="72.06" x2="540.93" y2="72.06" xlink:href="#Orchid"/>
    <linearGradient id="Sky-16" data-name="Sky" x1="547" y1="91.37" x2="568" y2="91.37" xlink:href="#Sky"/>
    <linearGradient id="Sky-17" data-name="Sky" x1="574.73" y1="126.64" x2="619.34" y2="126.64" xlink:href="#Sky"/>
    <linearGradient id="Sky-18" data-name="Sky" x1="628.93" y1="100.08" x2="642.66" y2="100.08" xlink:href="#Sky"/>
    <linearGradient id="Sky-19" data-name="Sky" x1="671.88" y1="76.63" x2="709.41" y2="76.63" xlink:href="#Sky"/>
    <linearGradient id="Sky-20" data-name="Sky" x1="640.31" y1="95.41" x2="695.73" y2="95.41" xlink:href="#Sky"/>
    <linearGradient id="Sky-21" data-name="Sky" x1="720.02" y1="140.47" x2="761.37" y2="140.47" xlink:href="#Sky"/>
    <linearGradient id="Sky-22" data-name="Sky" x1="758.46" y1="151.39" x2="778.48" y2="151.39" xlink:href="#Sky"/>
    <linearGradient id="Sky-23" data-name="Sky" x1="788.81" y1="134.53" x2="828.92" y2="134.53" xlink:href="#Sky"/>
  </defs>
  <path class="cls-23" d="m25.26,54.34c8.89,21.61,13.7,44.75,13.66,68.14-.02,11.35-1.18,22.67-3.72,33.73-1.28,5.57-2.88,11.07-4.84,16.44-.94,2.56-1.95,5.1-3.07,7.59-1.31,2.91-2.91,3.07-6.06,3.77l5.84,1.54c-2.13-1.93.98,2.45.02,2.43-.18,0,.59-.66.54-.64,1.2-.38,2.53-1.91,3.79-2.45.88-.38,1.9-.74,2.77-.83s-.22-.13-.45-.17c1.47.23,3.62,1.61,5.04,2.2,9.27,3.83,19.38,7.44,29.56,6.8,8.48-.53,17.38-3.19,22.97-9.96,6.24-7.56,6.42-18.13,2.93-26.96-2.81-7.1-14.42-4-11.57,3.19s2.93,15.45-4.73,19.31c-5.76,2.91-13.08,3.16-19.26,1.63-5.04-1.25-10.08-2.93-14.9-4.86-3.72-1.49-6.58-3.45-10.7-3.09-5.87.52-12.68,4.11-15.92,9.13-3.83,5.92-.73,15.25,7.28,14.28,10.73-1.3,13.92-10.06,17.23-18.97,6.97-18.78,9.74-39.17,9.22-59.14-.6-22.71-5.38-45.31-14.02-66.32-2.9-7.04-14.51-3.96-11.57,3.19h0Z"/>
  <path class="cls-6" d="m86.64,143.83c-6.54,6-9.48,16.27-6.55,24.78,3.75,10.87,15.78,11.19,24.25,5.4s13.36-17.7,9.42-27.45c-4.39-10.88-17.92-9.78-25.91-3.66-6.05,4.64-.07,15.06,6.06,10.36,2.38-1.82,8.27-5.59,9.13-.78s-2.19,9.64-5.95,11.94c-3.18,1.95-5.56,2.62-6.05-1.46s1.15-7.94,4.09-10.64c5.7-5.23-2.8-13.7-8.49-8.49Z"/>
  <path class="cls-2" d="m99.64,157.98c-2.84,8.64-.36,21.2,9.53,24.2s17.38-5.95,20.04-14.01c2.43-7.35-9.15-10.5-11.57-3.19-.61,1.85-1.66,3.88-3.35,5-.42.28-.86.47-1.34.63-.38.12.17.56-.59,0-2.53-1.87-2.07-6.62-1.15-9.44,2.41-7.35-9.17-10.51-11.57-3.19h0Z"/>
  <path class="cls-7" d="m134.43,59.57c-1.15,28.76-2.06,57.72-.16,86.47.58,8.81,1.41,17.7,3.21,26.36,1.08,5.19,2.53,10.78,5.6,15.19,6.12,8.8,15.78,6.44,22.59-.77,5.3-5.61-3.17-14.12-8.49-8.49-.98,1.04-3,2.22-3.76,3.32-.13.19.06-.62.72.31-.91-1.27.19,1.08-.97-.79-.5-.81.7,1.18-.18-.28-.29-.48-.57-.97-.84-1.46-.13-.23-.95-2.08-.39-.74-.28-.66-.51-1.33-.75-2.01-2.54-7.41-3.46-15.4-4.17-23.17-2.86-31.15-1.67-62.75-.42-93.95.31-7.72-11.69-7.71-12,0h0Z"/>
  <path class="cls-25" d="m118.64,94.17c2.56,8.22,7.25,16.94,16.84,17.6,7.64.52,14.77-4.16,20.97-8.01,6.55-4.07.53-14.45-6.06-10.36-3.7,2.3-8.47,6.05-13.01,6.39s-6.08-5.29-7.18-8.81c-2.29-7.35-13.88-4.21-11.57,3.19h0Z"/>
  <path class="cls-4" d="m173.25,57.6c6.85,15.34,8.67,32.73,8.99,49.34.5,25.85-2.95,51.66-7.59,77.03-1.38,7.55,10.18,10.79,11.57,3.19,4.91-26.83,8.67-54.22,7.99-81.56-.46-18.47-3.01-37.08-10.6-54.06-3.14-7.04-13.49-.94-10.36,6.06h0Z"/>
  <path class="cls-22" d="m220.64,50.98c-6.78,23.85-13.76,48.86-14.34,73.83-.3,12.73,1.59,26.93,14.48,32.65,12.19,5.41,23.32-.71,31.89-9.64,5.35-5.57-3.13-14.07-8.49-8.49-3.73,3.88-8.77,8.89-14.69,8.33-1.41-.13-2.79-.62-4.07-1.21-.67-.3-1.33-.69-1.96-1.05-1.39-.8,0,.13-.73-.49-1.2-1.02-2.13-2.67-2.71-4.39-1.07-3.2-1.48-6.25-1.65-9.58-.53-10.16.88-20.39,2.67-30.36,2.81-15.67,6.83-31.1,11.18-46.41,2.12-7.44-9.46-10.62-11.57-3.19h0Z"/>
  <path class="cls-10" d="m254.64,122.17c2.67,19.67,5.33,39.33,8,59,.44,3.24,4.55,4.94,7.38,4.19,3.47-.92,4.62-4.18,4.19-7.38-2.67-19.67-5.33-39.33-8-59-.44-3.24-4.55-4.94-7.38-4.19-3.47.92-4.62,4.18-4.19,7.38h0Z"/>
  <path class="cls-17" d="m182.43,134.57c22.48-.57,43.58-7.74,61.24-21.76,6.05-4.8-2.5-13.24-8.49-8.49-15.05,11.95-33.69,17.76-52.76,18.24-7.71.19-7.74,12.19,0,12h0Z"/>
  <path class="cls-21" d="m257.83,85.79c-6.59,2.25-11.76,8.7-11.07,15.9.78,8.2,9.04,12.47,16.63,11.06s13.09-9.19,11.79-16.84c-1.38-8.15-9.83-11.91-17.35-10.11s-4.33,13.37,3.19,11.57c3.46-.83,2.71,3.12,0,3.68-.88.18-1.66-.18-2.07-.26-.92-.17-.68-.56-.34-.24.4.38-.47.99.07-.22.34-.78,1-2.51,2.35-2.97,7.27-2.48,4.15-14.07-3.19-11.57Z"/>
  <path class="cls-9" d="m272.25,47.6c19.16,40.49,21.27,87.7,3,128.94-3.1,7,7.24,13.11,10.36,6.06,20.16-45.51,18.16-96.33-3-141.06-3.3-6.98-13.65-.89-10.36,6.06h0Z"/>
  <path class="cls-1" d="m313.4,63.39c-15.9,10.35-25.55,28.53-22.56,47.63,2.99,19.13,19.4,33.17,38,36.34,7.55,1.29,10.8-10.28,3.19-11.57-14.2-2.42-26.83-11.81-29.4-26.64-2.43-14.04,5.23-27.84,16.83-35.39,6.45-4.2.44-14.59-6.06-10.36h0Z"/>
  <path class="cls-13" d="m347.43,166.57c3.67-40.67,7.33-81.33,11-122l-10.24,4.24c20.33,22.06,39.66,48.93,45.3,79.03,1.67,8.94,1.97,19.11-2.03,27.51-4.82,10.1-15.2,14.29-25.62,16.43-7.56,1.55-4.36,13.12,3.19,11.57,10.41-2.13,20.95-6.37,27.96-14.69,5.59-6.63,8.34-14.75,9.26-23.28,2.38-21.97-7.32-44.66-18.11-63.22-8.79-15.12-19.64-29-31.47-41.84-3.82-4.14-9.81-.59-10.24,4.24-3.67,40.67-7.33,81.33-11,122-.69,7.69,11.31,7.64,12,0h0Z"/>
  <path class="cls-11" d="m341.45,125.75c19.96-14.38,37.38-31.48,52.15-51.15,4.64-6.18-5.78-12.16-10.36-6.06-13.45,17.92-29.67,33.75-47.85,46.85-6.21,4.47-.23,14.89,6.06,10.36h0Z"/>
  <path class="cls-16" d="m445.18,39.82c22.34,21.26,45.8,47.29,48.01,79.57.75,10.96-.86,21.84-7.24,31.02-7.74,11.13-20.78,17.71-33.12,22.38-7.15,2.71-4.05,14.31,3.19,11.57,21.27-8.05,42.19-21.25,47.71-44.84s-2.22-47.49-14.7-66.94c-9.81-15.28-22.24-28.77-35.36-41.25-5.59-5.32-14.09,3.15-8.49,8.49h0Z"/>
  <path class="cls-12" d="m451.31,45.22c1.34,38.05,2.69,76.11,4.03,114.16.19,5.35.38,10.7.57,16.05.27,7.7,12.27,7.74,12,0-1.34-38.05-2.69-76.11-4.03-114.16-.19-5.35-.38-10.7-.57-16.05-.27-7.7-12.27-7.74-12,0h0Z"/>
  <path class="cls-3" d="m527.64,93.98c-3.33,24-6.67,48-10,72-1.05,7.55,10.51,10.82,11.57,3.19,3.33-24,6.67-48,10-72,1.05-7.55-10.51-10.82-11.57-3.19h0Z"/>
  <path class="cls-8" d="m531.67,57.57c-7.77.95-14.13,7.03-13.6,15.27.49,7.52,7.12,13.85,14.69,13.73s13.97-7.37,13.65-14.85-7.01-14.08-14.75-14.15-7.73,11.93,0,12c2.51.02,4.12,4.32,1.09,5-2.68.61-3.91-4.66-1.09-5,3.22-.39,6-2.48,6-6,0-2.94-2.76-6.39-6-6Z"/>
  <path class="cls-15" d="m561.71,13.9c-7.18,51.14-13.92,102.34-20.21,153.6-.94,7.65,11.07,7.58,12,0,6.16-50.19,12.75-100.33,19.79-150.4.45-3.23-.79-6.4-4.19-7.38-2.8-.8-6.93.99-7.38,4.19h0Z"/>
  <path class="cls-14" d="m597.4,79.39c-6.81,4.25-13.68,8.76-19.52,14.3-4.03,3.82-8.33,8.84-8.59,14.67-.44,9.85,9.49,13.59,17.5,15.24s18.32,1.32,25.13,5.99c.83.57.61.64.87,1.06.65,1.03-.14-.97.04-.01.08.46-.21,2.05.08.4-.43,2.43-.99,3.33-2.84,5.95-7.66,10.82-19.98,18.95-30.66,26.4-6.29,4.39-.3,14.79,6.06,10.36,10.66-7.43,21.67-15.23,30.39-24.96,4.3-4.8,8.91-10.8,8.99-17.58.21-18.67-28.33-16.49-40.22-20.54-1.26-.43-3.2-1.33-3.36-1.63-.11-.22-.03-.19-.02-.23.17-.94.94-1.96,1.48-2.72,5.03-6.99,13.58-11.88,20.74-16.35,6.54-4.08.52-14.47-6.06-10.36h0Z"/>
  <path class="cls-24" d="m623.43,25.57c3.35,27.19,8.57,54.15,11.35,81.41,1.13,11.04,1.78,22.18,1.11,33.27-.69,11.4-3.52,21.98-7.25,32.73-2.54,7.31,9.05,10.45,11.57,3.19,7.74-22.3,9-44.29,6.72-67.69-2.72-27.77-8.09-55.22-11.5-82.91-.93-7.57-12.94-7.66-12,0h0Z"/>
  <path class="cls-20" d="m704.8,130.13c-4.02,4.19-9.33,9.33-15.67,8.17-1.82-.33-3.47-1.2-5.05-2.11-.64-.37-1.38-.98-1.99-1.79-1.4-1.86-2.35-4.89-2.97-8.25-.87-4.7-.83-9.59-.62-14.35,1.15-26.08,9.09-52.15,17.82-76.59,2.99-8.38,5.99-16.75,8.98-25.13,2.6-7.29-8.99-10.42-11.57-3.19-7.54,21.12-15.29,41.97-20.61,63.8-3.74,15.32-7.02,31.36-6.71,47.21.17,8.84,1.43,19.39,8.08,25.94,3.79,3.73,9.51,6.08,14.75,6.53,9.61.83,17.74-5.18,24.06-11.76,5.35-5.57-3.13-14.07-8.49-8.49h0Z"/>
  <path class="cls-19" d="m692.4,81.39c-9.24,6.96-19.38,14.21-30.88,16.75-7.19,1.59-12.94-.7-19.43-3.43-3.01-1.27-6.57,1.37-7.38,4.19-.99,3.45,1.22,6.13,4.19,7.38,8.14,3.43,15.47,5.35,24.41,3.71,13.03-2.38,24.77-10.44,35.14-18.25,6.09-4.59.12-15.01-6.06-10.36h0Z"/>
  <path class="cls-18" d="m726.01,120.94c-8.13,6.73-12.41,17.72-11.3,28.19s8.22,19.5,19.68,18.77,23.37-8.32,28.62-18.92c4.38-8.84,6.01-20.86-.42-29.18-8.51-11-25.71-6.95-35.38.2-6.14,4.54-.16,14.96,6.06,10.36,4.73-3.5,17.55-9.72,20.85-1.44,2.97,7.45-1.8,17.28-7.68,21.87-5.16,4.02-16.3,9.03-19.2.33-2.63-7.87,1.15-16.65,7.25-21.7s-2.57-13.37-8.49-8.49Z"/>
  <path class="cls-26" d="m754.21,141.09c-2.84,8.64-.36,21.2,9.53,24.2s17.38-5.95,20.04-14.01c2.43-7.35-9.15-10.5-11.57-3.19-.61,1.85-1.66,3.88-3.35,5-.42.28-.86.47-1.34.63-.38.12.17.56-.59,0-2.53-1.87-2.07-6.62-1.15-9.44,2.41-7.35-9.17-10.51-11.57-3.19h0Z"/>
  <path class="cls-5" d="m788.64,103.17c4.45,10.64,5.73,22.66,4.28,34.07-.79,6.16-2.38,12.26-4.4,18.13-.67,1.96-1.38,3.91-2.24,5.8-.28.62-.81,1.31-.97,1.96-.34,1.4.38-.83,2.53-1.34l5.84,1.54,1.64,3.88v-.18c-.04-.06.06-.46.02-.46.02,0,.06-.53-.03.08.22-1.48.52-2.95.83-4.41.84-4.01,1.84-8,2.89-11.96,2.64-9.95,5.61-19.91,9.5-29.45,1.46-3.57,3.09-7.13,5.19-10.37.97-1.5.89-.8,2-2.38-.41.59.46.2-.65.37-.67.1-1.48.06-1.52.05-2.75-.71,1.23-.21-1.19-.66.23.04.76.68.87.9-.2-.4-.22-.43.31.59.38.72.78,1.42,1.12,2.16,1.19,2.62,2.46,7.62,3.22,11.29,3.09,15,1.79,30.47,4.77,45.37,1.51,7.57,13.08,4.36,11.57-3.19-2.13-10.63-1.41-21.89-2.77-32.72-1.02-8.17-2.24-16.55-5.33-24.23-1.75-4.37-4.31-9.45-9.15-10.99-5.64-1.8-10.11,2.3-13.09,6.6-8.35,12.03-12.3,28.18-16.06,42.13-1.55,5.77-3.11,11.6-4.04,17.51-.29,1.86-.74,3.93-.2,5.8,1.32,4.56,6.98,5.87,10.36,2.6,2.85-2.76,4.21-7.69,5.52-11.28,2.46-6.71,4.19-13.67,5.17-20.75,1.82-13.15.75-27.33-4.4-39.66-1.26-3.01-3.96-5.09-7.38-4.19-2.83.75-5.44,4.39-4.19,7.38h0Z"/>
</svg>