<?xml version="1.0" encoding="UTF-8"?>
<svg id="Layer_1" data-name="Layer 1" xmlns="http://www.w3.org/2000/svg" viewBox="0 0 1280 1024">
  <defs>
    <style>
      .cls-1 {
        stroke: #000;
        stroke-miterlimit: 10;
        stroke-width: 3px;
      }

      .cls-1, .cls-2 {
        fill: none;
      }
    </style>
  </defs>
  <path class="cls-1" d="m165.04,340.74c17.16,41.16,19.52,91.89.74,132-1.06,2.72-4.48,4.17-8.97,5.05-6.65-5.17,10.14-14.27,13.94-11.08,4.2,1.96,8.43,3.56,12.52,4.86,4.43,1.41,8.13,2.63,11.69,3.11,7.16.96,21.87.1,27.47-10.11,4.27-7.78.92-16.73,0-19"/>
  <path class="cls-1" d="m217.43,430.57c-8.08,7.09-8.14,22.24-2,26,4.26,2.61,11.18-.48,15-4,7.47-6.88,8.89-20.75,3-25-4.23-3.06-11.7-.77-16,3Z"/>
  <path class="cls-1" d="m238.43,438.57c-3.11,8.44,1.34,16.03,6,17,4.07.84,9.94-3.03,12-10"/>
  <path class="cls-1" d="m259.43,337.57c-3.37,83.27.63,125.94,12,128,2.61.47,5.61-1.19,9-5"/>
  <path class="cls-1" d="m243.43,370.57c5.86,20.09,17.39,13.23,29,6"/>
  <path class="cls-1" d="m297.43,332.57c11.85,26.13,13.6,68.08,2,131"/>
  <path class="cls-1" d="m345.43,330.57c-16.6,58.1-18.6,90.76-6,98,6.01,3.45,15,7,28-7"/>
  <line class="cls-1" x1="333.25" y1="381.95" x2="331.71" y2="397.78"/>
  <line class="cls-1" x1="306.86" y1="372.92" x2="307.37" y2="382.97"/>
  <path class="cls-1" d="m379.43,398.57c2.67,19.67,5.33,39.33,8,59"/>
  <path class="cls-1" d="m301.43,406.57c11.79-.23,29.49-2.49,47-13,3.72-2.23,7.04-4.61,10-7"/>
  <path class="cls-1" d="m373.43,375.57c-4.94,1.42-8.34,7.87-6,12,2.05,3.62,8.06,4.66,12,2,3.41-2.3,5.27-7.38,3-11-1.92-3.06-6.02-3.86-9-3Z"/>
  <path class="cls-1" d="m396.43,322.57c7.74,16.26,21.32,51.01,15,94-2.42,16.44-7.18,30.25-12,41"/>
  <path class="cls-1" d="m433.43,348.57c-17.02,10.68-24.21,31.06-18,48,4.84,13.2,17.25,22.74,32,25"/>
  <path class="cls-1" d="m460.43,444.57c3.67-40.67,7.33-81.33,11-122,43.91,47.31,58.34,96.39,41,119-3.55,4.63-10.67,11.06-26,14"/>
  <path class="cls-1" d="m457.43,398.57c11.2-8.02,23.71-18.48,36-32,5.26-5.78,9.9-11.5,14-17"/>
  <polyline class="cls-2" points="933.93 488.07 529.84 485.09 933.93 488.07"/>
  <path class="cls-1" d="m568.43,313.57c27.81,26.31,44.51,50.87,48.49,73.55,5.61,32.02-4,54.76-43.49,69.45"/>
  <line class="cls-1" x1="576.31" y1="323.22" x2="580.91" y2="453.44"/>
  <path class="cls-1" d="m657.43,374.57c-3.33,24-6.67,48-10,72"/>
  <path class="cls-1" d="m656.43,351.57c-3.91.23-6.84,4.22-7,8-.19,4.5,3.54,9.26,8,9,3.91-.23,6.84-4.22,7-8,.19-4.5-3.54-9.26-8-9Z"/>
  <path class="cls-1" d="m686.5,293.5c-4.42,31.46-8.71,63.2-12.85,95.23-2.46,19.01-4.84,37.93-7.15,56.77"/>
  <path class="cls-1" d="m719.43,362.57c-13.5,8.35-26.99,18.61-25,26,3.01,11.18,38.72,5.89,43,18,2.21,6.24-3.76,17.63-36,40"/>
  <path class="cls-1" d="m748.43,303.57c7.18,58.89,19.56,103.46,8,140-.96,3.04-1.96,6.04-3,9"/>
  <path class="cls-1" d="m806.04,321.38c-16.6,58.1-18.6,90.76-6,98,6.01,3.45,15,7,28-7"/>
  <path class="cls-1" d="m805.43,323.57c3.02-8.36,6.05-16.72,9.07-25.07"/>
  <path class="cls-1" d="m814.43,364.57c-18.52,14.09-35.83,22.43-50,16l-4.93-2.07"/>
  <path class="cls-1" d="m849.25,403.18c-12.49,9.76-12.43,30.44-2.85,35.49,6.66,3.51,17.38-.79,23.29-5.63,11.55-9.48,13.62-28.4,4.41-34.14-6.61-4.12-18.21-.91-24.85,4.28Z"/>
  <path class="cls-1" d="m879,420.69c-3.11,8.44,1.34,16.03,6,17,4.07.84,9.94-3.03,12-10"/>
  <path class="cls-1" d="m913.43,379.57c2.45,5.71,4.97,14.47,5,27.41,0,0,0,.3,0,.59-.11,18.63-9.07,38.33-10,38-1.63-.57,14.36-65.78,25-65,5.09.37,12,16,13,59l1,5"/>
</svg>